<?xml version="1.0" encoding="utf-8"?>
<!-- Generator: Adobe Illustrator 16.0.0, SVG Export Plug-In . SVG Version: 6.00 Build 0)  -->
<!DOCTYPE svg PUBLIC "-//W3C//DTD SVG 1.1//EN" "http://www.w3.org/Graphics/SVG/1.1/DTD/svg11.dtd">
<svg version="1.1" id="Layer_1" xmlns="http://www.w3.org/2000/svg" xmlns:xlink="http://www.w3.org/1999/xlink" x="0px" y="0px"
	 width="24px" height="24px" viewBox="0 0 24 24" enable-background="new 0 0 24 24" xml:space="preserve">
<g>
	<path fill="none" stroke="#152172" stroke-width="0.5" stroke-linecap="round" stroke-linejoin="round" stroke-miterlimit="10" d="
		M8.528,16.436"/>
	<g>
		
			<path fill="none" stroke="#152172" stroke-width="0.5" stroke-linecap="round" stroke-linejoin="round" stroke-miterlimit="10" d="
			M9.685,16.436H5.057v-1.156c0-0.758,0.691-1.543,1.543-1.543h1.541c0.853,0,1.543,0.785,1.543,1.543V16.436z"/>
		
			<line fill="none" stroke="#152172" stroke-width="0.5" stroke-linecap="round" stroke-linejoin="round" stroke-miterlimit="10" x1="6.214" y1="15.277" x2="6.214" y2="16.436"/>
		
			<line fill="none" stroke="#152172" stroke-width="0.5" stroke-linecap="round" stroke-linejoin="round" stroke-miterlimit="10" x1="8.528" y1="15.277" x2="8.528" y2="16.436"/>
		
			<circle fill="none" stroke="#152172" stroke-width="0.5" stroke-linecap="round" stroke-linejoin="round" stroke-miterlimit="10" cx="7.371" cy="11.807" r="1.156"/>
	</g>
	
		<line fill="none" stroke="#152172" stroke-width="0.5" stroke-linecap="round" stroke-linejoin="round" stroke-miterlimit="10" x1="10.842" y1="12.578" x2="16.242" y2="12.578"/>
	
		<line fill="none" stroke="#152172" stroke-width="0.5" stroke-linecap="round" stroke-linejoin="round" stroke-miterlimit="10" x1="10.842" y1="13.734" x2="15.085" y2="13.734"/>
	
		<line fill="none" stroke="#152172" stroke-width="0.5" stroke-linecap="round" stroke-linejoin="round" stroke-miterlimit="10" x1="10.842" y1="14.893" x2="13.929" y2="14.893"/>
	<path fill="none" stroke="#152172" stroke-width="0.5" stroke-linecap="round" stroke-linejoin="round" stroke-miterlimit="10" d="
		M13.929,8.336h3.471c0.513,0,0.771,0.26,0.771,0.771v2.314"/>
	<path fill="none" stroke="#152172" stroke-width="0.5" stroke-linecap="round" stroke-linejoin="round" stroke-miterlimit="10" d="
		M15.856,18.365H4.286c-0.512,0-0.771-0.262-0.771-0.773V9.108c0-0.426,0.345-0.771,0.771-0.771h3.471"/>
	
		<rect x="9.299" y="5.25" fill="none" stroke="#152172" stroke-width="0.5" stroke-linecap="round" stroke-linejoin="round" stroke-miterlimit="10" width="3.086" height="4.243"/>
	
		<line fill="none" stroke="#152172" stroke-width="0.5" stroke-linecap="round" stroke-linejoin="round" stroke-miterlimit="10" x1="9.299" y1="8.336" x2="12.385" y2="8.336"/>
	<g>
		
			<path fill="none" stroke="#152172" stroke-width="0.5" stroke-linecap="round" stroke-linejoin="round" stroke-miterlimit="10" d="
			M18.171,18.75c0,0,2.314-1.156,2.314-4.242c-1.543,0-2.314-1.543-2.314-1.543s-0.771,1.543-2.314,1.543
			C15.856,17.594,18.171,18.75,18.171,18.75z"/>
	</g>
	
		<line fill="none" stroke="#152172" stroke-width="0.5" stroke-linecap="round" stroke-linejoin="round" stroke-miterlimit="10" x1="8.528" y1="9.494" x2="13.156" y2="9.494"/>
	<g>
		
			<polyline fill="none" stroke="#152172" stroke-width="0.5" stroke-linecap="round" stroke-linejoin="round" stroke-miterlimit="10" points="
			17.015,16.051 17.784,16.82 19.328,15.277 		"/>
	</g>
</g>
</svg>
