<?xml version="1.0" encoding="utf-8"?>
<!-- Generator: Adobe Illustrator 25.4.1, SVG Export Plug-In . SVG Version: 6.00 Build 0)  -->
<svg version="1.1" id="Layer_1" xmlns="http://www.w3.org/2000/svg" xmlns:xlink="http://www.w3.org/1999/xlink" x="0px" y="0px"
	 viewBox="0 0 293 202.2" style="enable-background:new 0 0 293 202.2;" xml:space="preserve">
<style type="text/css">
	.st0{fill:#152172;}
	.st1{fill:#FFFFFF;}
</style>
<path class="st0" d="M11.8,13.1h72.3c5.5,0,9.8,4.4,9.8,10v73.7c0,5.6-4.3,10-9.8,10H11.8c-5.5,0-9.8-4.4-9.8-10V23.1
	C1.9,17.5,6.5,13.1,11.8,13.1z"/>
<path class="st0" d="M110.5,13.1h72.3c5.5,0,9.8,4.4,9.8,10v73.7c0,5.6-4.3,10-9.8,10h-72.3c-5.5,0-9.8-4.4-9.8-10V23.1
	C100.6,17.5,105,13.1,110.5,13.1z"/>
<path class="st0" d="M208.9,13.1h72.3c5.5,0,9.8,4.4,9.8,10v73.7c0,5.6-4.3,10-9.8,10h-72.3c-5.5,0-9.8-4.4-9.8-10V23.1
	C199.1,17.5,203.4,13.1,208.9,13.1z"/>
<path class="st1" d="M154.4,36.3l14.9,49.2h-7.7c-1,0-1.7-0.5-1.9-1.5l-3.1-10.3h-19.9l-3.1,10.3c-0.2,1-1.2,1.5-1.9,1.5h-7.7
	l15.1-49.2c0.5-1.2,1.7-2.2,2.9-2.2h9.6C152.7,34.4,153.9,35.1,154.4,36.3z M154.4,66l-6.7-22.5c-0.2-1-1.7-1-1.9,0L139.1,66H154.4z
	"/>
<path class="st1" d="M231.8,34.4c0.7,0,1.4,0.5,1.7,1L244.2,53c0.5,0.7,1.4,0.7,1.7,0l11-17.6c0.5-0.5,1-1,1.7-1h8.9l-14.9,24.3
	c-0.5,0.7-0.5,1.5,0,2.2l15.1,25h-8.9c-0.7,0-1.4-0.5-1.7-1l-11-18.1c-0.5-0.7-1.4-0.7-1.7,0l-11,18.1c-0.5,0.5-1.2,1-1.7,1h-8.9
	l15.1-25c0.5-0.7,0.5-1.5,0-2.2l-14.9-24.3H231.8L231.8,34.4z"/>
<path class="st1" d="M46.4,85.6c10.8,0,17.1-5.6,17.1-16.2V34.1h-8.9v34.3c0,0.2,0,0.5,0,0.7v3.9c0,2.2-1.7,3.9-3.8,3.9h-4.1
	c-0.2,0-0.2,0-0.5,0s-0.2,0-0.5,0h-3.8c-2.2,0-3.8-1.7-3.8-3.9v-3.9c0-0.2,0-0.5,0-0.7h-8.9C29.8,79,35.3,85.6,46.4,85.6z"/>
<g>
	<path class="st0" d="M22.5,180c-6.1,0-11-1.7-14.6-5.2c-3.6-3.5-5.4-8.4-5.4-14.9V148c0-6.5,1.8-11.5,5.4-14.9
		c3.6-3.5,8.5-5.2,14.6-5.2c6.1,0,10.8,1.7,14.2,5c3.3,3.3,5,7.9,5,13.8v0.4h-8.5v-0.6c0-3.2-0.9-5.7-2.6-7.8c-1.7-2-4.4-3-8.1-3
		c-3.5,0-6.3,1.1-8.3,3.3c-2,2.2-3,5.2-3,9V160c0,3.8,1,6.8,3,9c2,2.2,4.8,3.3,8.3,3.3c3.6,0,6.3-1,8.1-3c1.7-2,2.6-4.6,2.6-7.8
		v-1.2h8.5v1c0,5.8-1.7,10.4-5,13.8C33.4,178.4,28.6,180,22.5,180z"/>
	<path class="st0" d="M66.8,180c-3.5,0-6.7-0.7-9.5-2.2c-2.8-1.5-5-3.5-6.6-6.2c-1.6-2.7-2.4-5.9-2.4-9.7v-1.1c0-3.8,0.8-7,2.4-9.7
		c1.6-2.7,3.8-4.8,6.6-6.2c2.8-1.4,6-2.1,9.5-2.1c3.5,0,6.7,0.7,9.5,2.1c2.8,1.4,5,3.5,6.6,6.2c1.6,2.7,2.4,6,2.4,9.7v1.1
		c0,3.8-0.8,7-2.4,9.7c-1.6,2.7-3.8,4.8-6.6,6.2C73.5,179.3,70.4,180,66.8,180z M66.8,172.7c3,0,5.5-1,7.4-2.9
		c1.9-1.9,2.9-4.6,2.9-8.1V161c0-3.5-1-6.2-2.9-8.1c-1.9-1.9-4.4-2.9-7.4-2.9c-3,0-5.5,1-7.4,2.9c-1.9,1.9-2.9,4.6-2.9,8.1v0.7
		c0,3.5,1,6.2,2.9,8.1C61.3,171.7,63.8,172.7,66.8,172.7z"/>
	<path class="st0" d="M94,179v-35.4h8.1v4.1h1.2c0.5-1.5,1.4-2.6,2.7-3.2c1.2-0.7,2.7-1,4.4-1h4.3v7.3h-4.4c-2.4,0-4.3,0.6-5.8,1.9
		c-1.5,1.3-2.2,3.2-2.2,5.8V179H94z"/>
	<path class="st0" d="M122,193.4v-49.7h8.1v4.7h1.2c0.8-1.5,2.1-2.8,3.9-3.9c1.8-1.1,4.4-1.7,7.7-1.7c2.9,0,5.5,0.7,8,2.1
		c2.5,1.4,4.4,3.5,5.9,6.2c1.5,2.7,2.2,6,2.2,9.8v1.1c0,3.8-0.7,7.1-2.2,9.8c-1.5,2.7-3.4,4.8-5.9,6.2s-5.1,2.1-8,2.1
		c-2.2,0-4.1-0.3-5.6-0.8c-1.5-0.5-2.7-1.2-3.7-2.1s-1.7-1.7-2.2-2.6h-1.2v18.8H122z M140.5,172.9c3,0,5.5-1,7.4-2.9
		c1.9-1.9,2.9-4.7,2.9-8.3V161c0-3.6-1-6.4-2.9-8.3c-2-1.9-4.4-2.9-7.4-2.9c-3,0-5.4,1-7.4,2.9c-2,1.9-3,4.7-3,8.3v0.7
		c0,3.6,1,6.3,3,8.3C135.1,171.9,137.5,172.9,140.5,172.9z"/>
	<path class="st0" d="M204.8,180c-4,0-7.5-0.7-10.4-2.2c-2.9-1.5-5.1-3.6-6.7-6.3c-1.6-2.8-2.3-6.1-2.3-9.9v-32.8h8.6v33
		c0,3.3,0.9,5.9,2.8,7.7c1.9,1.8,4.5,2.7,8,2.7c3.5,0,6.2-0.9,8-2.7c1.8-1.8,2.8-4.4,2.8-7.7v-33h8.6v32.8c0,3.8-0.8,7.1-2.3,9.9
		c-1.5,2.8-3.8,4.9-6.7,6.3C212.3,179.3,208.9,180,204.8,180z"/>
	<path class="st0" d="M232.2,179v-7.6h6.7v-35h-6.7v-7.6h25.7c3,0,5.6,0.5,7.9,1.5c2.3,1,4,2.5,5.3,4.4c1.3,1.9,1.9,4.1,1.9,6.8v0.6
		c0,2.3-0.4,4.2-1.3,5.7c-0.9,1.5-1.9,2.6-3.1,3.4c-1.2,0.8-2.3,1.4-3.4,1.7v1.2c1.1,0.3,2.3,0.8,3.5,1.6c1.3,0.8,2.3,1.9,3.2,3.4
		c0.9,1.5,1.3,3.5,1.3,5.8v0.7c0,2.7-0.7,5.1-2,7.1c-1.3,2-3.1,3.5-5.4,4.6c-2.3,1.1-4.9,1.6-7.8,1.6H232.2z M247.6,149.9h9.5
		c2.2,0,4-0.5,5.3-1.6c1.4-1.1,2-2.6,2-4.6v-0.7c0-2-0.7-3.5-2-4.6c-1.4-1.1-3.1-1.6-5.3-1.6h-9.5V149.9z M247.6,171.2h9.5
		c2.3,0,4.1-0.6,5.5-1.7c1.4-1.1,2-2.7,2-4.8v-0.6c0-2.1-0.7-3.6-2-4.8c-1.3-1.1-3.2-1.7-5.5-1.7h-9.5V171.2z"/>
	<path class="st0" d="M281.4,179v-50.2h8.7V179H281.4z"/>
</g>
</svg>
