<?xml version="1.0" encoding="utf-8"?>
<!-- Generator: Adobe Illustrator 16.0.0, SVG Export Plug-In . SVG Version: 6.00 Build 0)  -->
<!DOCTYPE svg PUBLIC "-//W3C//DTD SVG 1.1//EN" "http://www.w3.org/Graphics/SVG/1.1/DTD/svg11.dtd">
<svg version="1.1" id="Layer_1" xmlns="http://www.w3.org/2000/svg" xmlns:xlink="http://www.w3.org/1999/xlink" x="0px" y="0px"
	 width="24px" height="24px" viewBox="0 0 24 24" enable-background="new 0 0 24 24" xml:space="preserve">
<g>
	<g>
		<defs>
			<rect id="SVGID_1_" x="3.016" y="3.707" width="17.969" height="16.586"/>
		</defs>
		<clipPath id="SVGID_2_">
			<use xlink:href="#SVGID_1_"  overflow="visible"/>
		</clipPath>
		<g clip-path="url(#SVGID_2_)">
			<path fill="#898DB4" d="M20.715,12.827c-0.169-0.195-0.401-0.326-0.656-0.368c-0.256-0.042-0.519,0.007-0.741,0.138l-3.234,1.729
				c-0.134-0.258-0.351-0.463-0.616-0.579c-0.267-0.118-0.564-0.14-0.846-0.064l-2.258,0.612c-0.127,0.033-0.258,0.043-0.388,0.026
				s-0.255-0.059-0.368-0.124L10.1,13.336c-0.208-0.119-0.439-0.196-0.678-0.228c-0.239-0.03-0.481-0.014-0.713,0.051l-2.858,0.773
				l-0.059-0.215c-0.047-0.167-0.159-0.308-0.31-0.393c-0.151-0.084-0.331-0.104-0.498-0.059l0,0l-1.476,0.4
				c-0.168,0.044-0.312,0.152-0.399,0.302c-0.088,0.149-0.113,0.327-0.069,0.495l1.459,5.354c0.039,0.138,0.122,0.258,0.236,0.344
				c0.114,0.085,0.253,0.131,0.396,0.131c0.06,0,0.119-0.008,0.176-0.024l1.477-0.399c0.167-0.044,0.312-0.152,0.399-0.302
				s0.113-0.327,0.069-0.494l-0.109-0.401l5.589,0.548c0.153,0.016,0.304,0.022,0.456,0.022c1.091,0,2.146-0.387,2.979-1.09
				l4.431-3.761c0.111-0.094,0.202-0.209,0.269-0.339c0.066-0.129,0.105-0.271,0.117-0.417c0.012-0.145-0.006-0.291-0.052-0.429
				s-0.119-0.267-0.214-0.377L20.715,12.827z M6.646,19.373l-1.477,0.4c-0.018,0.006-0.036,0.008-0.054,0.007
				s-0.036-0.007-0.053-0.015s-0.031-0.02-0.043-0.034C5.008,19.718,5,19.701,4.994,19.684l-1.459-5.355
				c-0.004-0.018-0.005-0.036-0.002-0.054c0.003-0.019,0.01-0.036,0.02-0.051c0.01-0.016,0.023-0.029,0.038-0.04
				c0.015-0.01,0.032-0.018,0.05-0.021l1.477-0.399c0.017-0.006,0.036-0.008,0.054-0.007c0.019,0.002,0.036,0.006,0.053,0.015
				c0.016,0.009,0.031,0.021,0.042,0.034c0.012,0.014,0.021,0.029,0.026,0.048l1.461,5.355c0.004,0.018,0.005,0.036,0.002,0.054
				c-0.003,0.02-0.01,0.037-0.021,0.052c-0.01,0.016-0.023,0.029-0.039,0.039C6.682,19.363,6.665,19.37,6.646,19.373L6.646,19.373z
				 M20.468,13.594c-0.007,0.077-0.027,0.153-0.063,0.223c-0.035,0.069-0.084,0.132-0.144,0.182l-4.43,3.76
				c-0.419,0.354-0.904,0.62-1.429,0.783c-0.523,0.164-1.075,0.222-1.621,0.169l-5.785-0.569L5.984,14.43l2.858-0.774
				c0.167-0.046,0.341-0.059,0.513-0.037c0.172,0.021,0.337,0.078,0.487,0.165l1.511,0.86c0.172,0.1,0.363,0.163,0.56,0.188
				c0.197,0.024,0.397,0.011,0.589-0.042l2.259-0.611c0.188-0.037,0.382-0.001,0.545,0.099c0.162,0.101,0.281,0.259,0.331,0.442
				c0.05,0.186,0.028,0.381-0.062,0.55c-0.089,0.168-0.239,0.297-0.419,0.36l-3.182,0.861c-0.066,0.018-0.122,0.062-0.156,0.121
				s-0.042,0.13-0.024,0.195c0.019,0.065,0.063,0.122,0.122,0.155c0.06,0.033,0.129,0.042,0.196,0.024l3.182-0.862
				c0.28-0.076,0.525-0.246,0.695-0.48c0.171-0.235,0.254-0.521,0.239-0.81l3.345-1.788l0.01-0.006
				c0.093-0.055,0.199-0.084,0.308-0.083s0.215,0.031,0.307,0.088c0.093,0.058,0.167,0.14,0.217,0.235
				c0.049,0.097,0.07,0.205,0.062,0.313H20.468z"/>
			<path fill="#898DB4" d="M13.762,12.754c1.049-0.001,2.065-0.364,2.876-1.027c0.811-0.664,1.365-1.587,1.569-2.613
				c0.205-1.026,0.046-2.091-0.448-3.013c-0.494-0.922-1.295-1.645-2.264-2.045c-0.97-0.4-2.048-0.453-3.052-0.149
				C11.44,4.21,10.573,4.852,9.99,5.721c-0.583,0.87-0.845,1.914-0.742,2.954c0.103,1.041,0.564,2.014,1.306,2.754
				c0.42,0.421,0.92,0.755,1.471,0.983C12.575,12.639,13.166,12.756,13.762,12.754z M10.918,5.396
				c0.658-0.656,1.523-1.064,2.449-1.155s1.854,0.141,2.628,0.657s1.344,1.282,1.613,2.169c0.271,0.888,0.223,1.841-0.133,2.699
				c-0.355,0.856-1,1.564-1.819,2.001c-0.82,0.438-1.768,0.577-2.68,0.396c-0.912-0.182-1.734-0.672-2.324-1.389
				C10.063,10.057,9.74,9.158,9.74,8.23c-0.001-0.527,0.102-1.049,0.303-1.535c0.202-0.487,0.499-0.928,0.873-1.3H10.918z"/>
			<path fill="#898DB4" d="M12.238,9.439c-0.17,0.005-0.337-0.03-0.49-0.103c-0.132-0.065-0.242-0.168-0.315-0.296
				c-0.079-0.145-0.117-0.307-0.112-0.471V6.994h0.375V8.58C11.69,8.65,11.7,8.722,11.723,8.789
				c0.024,0.067,0.061,0.128,0.109,0.181c0.115,0.088,0.256,0.137,0.402,0.137s0.287-0.048,0.402-0.137
				c0.049-0.053,0.086-0.114,0.109-0.181c0.023-0.067,0.033-0.139,0.027-0.209V6.994h0.371v1.576
				c0.006,0.164-0.032,0.326-0.109,0.471c-0.072,0.128-0.184,0.232-0.316,0.296C12.568,9.407,12.404,9.442,12.238,9.439
				L12.238,9.439z"/>
			<path fill="#898DB4" d="M13.547,9.391V9.063h0.322v-1.74h-0.322V6.994h1.219c0.13-0.002,0.26,0.022,0.378,0.073
				c0.103,0.045,0.189,0.118,0.253,0.209c0.062,0.095,0.094,0.208,0.091,0.321v0.034c0.005,0.095-0.017,0.19-0.062,0.274
				c-0.037,0.066-0.088,0.122-0.149,0.165c-0.052,0.036-0.107,0.063-0.166,0.083v0.055c0.06,0.018,0.117,0.044,0.169,0.08
				c0.063,0.043,0.116,0.101,0.154,0.167c0.046,0.084,0.067,0.178,0.063,0.274v0.034c0.004,0.121-0.027,0.24-0.092,0.342
				c-0.063,0.095-0.152,0.17-0.256,0.216c-0.119,0.052-0.247,0.078-0.377,0.076L13.547,9.391z M14.243,8.015h0.48
				c0.102,0.005,0.201-0.026,0.281-0.088c0.035-0.028,0.063-0.065,0.081-0.106c0.019-0.042,0.027-0.086,0.025-0.132V7.655
				c0.003-0.045-0.006-0.09-0.024-0.131s-0.046-0.078-0.081-0.107c-0.08-0.062-0.181-0.093-0.282-0.087h-0.48V8.015z M14.243,9.056
				h0.48c0.104,0.006,0.208-0.025,0.292-0.089c0.035-0.031,0.063-0.068,0.081-0.111c0.019-0.042,0.027-0.089,0.025-0.136v-0.03
				c0.002-0.046-0.006-0.093-0.024-0.136c-0.018-0.042-0.046-0.081-0.081-0.111c-0.083-0.064-0.188-0.096-0.293-0.089h-0.48V9.056z"
				/>
			<path fill="#898DB4" d="M15.913,9.391V6.994h0.371v2.397H15.913z"/>
		</g>
	</g>
</g>
</svg>
