<svg width="23" height="24" viewBox="0 0 23 24" fill="none" xmlns="http://www.w3.org/2000/svg">
<g clip-path="url(#clip0_2_145)">
<path d="M19.8401 12C19.8383 11.3637 19.7645 10.7297 19.6201 10.11L21.6801 8.91998C21.7947 8.85465 21.8952 8.76731 21.9759 8.66296C22.0566 8.55862 22.1158 8.43935 22.1502 8.31201C22.1846 8.18467 22.1934 8.0518 22.1762 7.92102C22.1591 7.79024 22.1162 7.66412 22.0501 7.54999L20.5501 4.95001C20.4847 4.83542 20.3974 4.73486 20.293 4.65417C20.1887 4.57349 20.0694 4.51425 19.9421 4.47986C19.8147 4.44547 19.6818 4.43661 19.5511 4.4538C19.4203 4.47098 19.2942 4.5139 19.1801 4.58002L17.1201 5.78003C16.1837 4.90788 15.0625 4.25837 13.8401 3.88V1.5C13.8401 1.23478 13.7347 0.980444 13.5472 0.792908C13.3596 0.605371 13.1053 0.5 12.8401 0.5H9.84007C9.57485 0.5 9.32049 0.605371 9.13296 0.792908C8.94542 0.980444 8.84007 1.23478 8.84007 1.5V3.88C7.61765 4.25837 6.49644 4.90788 5.56007 5.78003L3.50007 4.58002C3.38594 4.5139 3.25985 4.47098 3.12907 4.4538C2.99829 4.43661 2.8654 4.44547 2.73806 4.47986C2.61072 4.51425 2.49144 4.57349 2.38709 4.65417C2.28275 4.73486 2.19539 4.83542 2.13006 4.95001L0.630059 7.54999C0.56394 7.66412 0.521068 7.79024 0.503884 7.92102C0.486701 8.0518 0.495555 8.18467 0.529946 8.31201C0.564338 8.43935 0.623579 8.55862 0.704263 8.66296C0.784947 8.76731 0.885482 8.85465 1.00007 8.91998L3.06007 10.11C2.91564 10.7297 2.84184 11.3637 2.84007 12C2.84184 12.6363 2.91564 13.2703 3.06007 13.89L1.00007 15.08C0.885482 15.1453 0.784947 15.2327 0.704263 15.337C0.623579 15.4414 0.564338 15.5606 0.529946 15.688C0.495555 15.8153 0.486701 15.9482 0.503884 16.079C0.521068 16.2098 0.56394 16.3359 0.630059 16.45L2.13006 19.05C2.19539 19.1646 2.28275 19.2651 2.38709 19.3458C2.49144 19.4265 2.61072 19.4858 2.73806 19.5201C2.8654 19.5545 2.99829 19.5634 3.12907 19.5462C3.25985 19.529 3.38594 19.4861 3.50007 19.42L5.56007 18.22C6.49644 19.0921 7.61765 19.7416 8.84007 20.12V22.5C8.84007 22.7652 8.94542 23.0196 9.13296 23.2071C9.32049 23.3946 9.57485 23.5 9.84007 23.5H12.8401C13.1053 23.5 13.3596 23.3946 13.5472 23.2071C13.7347 23.0196 13.8401 22.7652 13.8401 22.5V20.12C15.0625 19.7416 16.1837 19.0921 17.1201 18.22L19.1801 19.42C19.2942 19.4861 19.4203 19.529 19.5511 19.5462C19.6818 19.5634 19.8147 19.5545 19.9421 19.5201C20.0694 19.4858 20.1887 19.4265 20.293 19.3458C20.3974 19.2651 20.4847 19.1646 20.5501 19.05L22.0501 16.45C22.1162 16.3359 22.1591 16.2098 22.1762 16.079C22.1934 15.9482 22.1846 15.8153 22.1502 15.688C22.1158 15.5606 22.0566 15.4414 21.9759 15.337C21.8952 15.2327 21.7947 15.1453 21.6801 15.08L19.6201 13.89C19.7645 13.2703 19.8383 12.6363 19.8401 12Z" stroke="#44D5A3" stroke-linecap="round" stroke-linejoin="round"/>
<path d="M11.3401 15.5C13.2731 15.5 14.8401 13.933 14.8401 12C14.8401 10.067 13.2731 8.5 11.3401 8.5C9.40709 8.5 7.84009 10.067 7.84009 12C7.84009 13.933 9.40709 15.5 11.3401 15.5Z" stroke="#44D5A3" stroke-linecap="round" stroke-linejoin="round"/>
</g>
<defs>
<clipPath id="clip0_2_145">
<rect width="22.69" height="24" fill="white"/>
</clipPath>
</defs>
</svg>
