<svg width="24" height="24" viewBox="0 0 24 24" fill="none" xmlns="http://www.w3.org/2000/svg">
<path d="M8.5 15.5C9.60457 15.5 10.5 14.6046 10.5 13.5C10.5 12.3954 9.60457 11.5 8.5 11.5C7.39543 11.5 6.5 12.3954 6.5 13.5C6.5 14.6046 7.39543 15.5 8.5 15.5Z" stroke="#FD9651" stroke-linecap="round" stroke-linejoin="round"/>
<path d="M16.5 19.5C17.6046 19.5 18.5 18.6046 18.5 17.5C18.5 16.3954 17.6046 15.5 16.5 15.5C15.3954 15.5 14.5 16.3954 14.5 17.5C14.5 18.6046 15.3954 19.5 16.5 19.5Z" stroke="#FD9651" stroke-linecap="round" stroke-linejoin="round"/>
<path d="M22.5 8.5L17.46 15.74" stroke="#FD9651" stroke-linecap="round" stroke-linejoin="round"/>
<path d="M14.71 16.61L10.29 14.39" stroke="#FD9651" stroke-linecap="round" stroke-linejoin="round"/>
<path d="M7.25 15.06L0.5 23.5" stroke="#FD9651" stroke-linecap="round" stroke-linejoin="round"/>
<path d="M0.5 0.5V23.5" stroke="#FD9651" stroke-linecap="round" stroke-linejoin="round"/>
<path d="M23.5 23.5H0.5" stroke="#FD9651" stroke-linecap="round" stroke-linejoin="round"/>
<path d="M18.5 9.5L22.5 8.5L23.5 12.5" stroke="#FD9651" stroke-linecap="round" stroke-linejoin="round"/>
</svg>
